<svg width="270" height="60" xmlns="http://www.w3.org/2000/svg" xmlns:svg="http://www.w3.org/2000/svg">
    <defs>
    <radialGradient id="svg_12" spreadMethod="pad" cx="0.5" cy="0.5" r="0.5">
      <stop stop-color="#aad4ff" offset="0"/>
      <stop stop-color="#093f75" stop-opacity="0.98828" offset="1"/>
    </radialGradient>
    <linearGradient id="svg_15" spreadMethod="pad" x1="0" y1="0" x2="1" y2="0">
      <stop stop-color="#333333" stop-opacity="0.99609" offset="0"/>
      <stop stop-color="#8e0404" stop-opacity="0.98828" offset="1"/>
    </linearGradient>
  </defs>
  <g>
    <title>
      Layer 1
    </title>
    <path fill="url(#svg_12)" stroke="url(#svg_15)" stroke-width="5" d="m80.56835 265.3678l122.50193-122.49879 367.49954 0 -122.50128 122.49879 -367.50018 0 0 0 -0.00001 0z" id="svg_1" transform="translate(0, -3) translate(4, -3) translate(-3, 3) translate(5, -57) translate(0, 1) translate(45, -32) translate(0, 1) translate(0, -1) translate(1) translate(0, -1) translate(1) translate(0, -1) translate(1) translate(0, -1) translate(1) translate(-154, -45) translate(0, 1) translate(0, 1) translate(0, 1) translate(0, -1) translate(-1) translate(0, -1) translate(0, -1) translate(-1) translate(0, 1) translate(80.5664, 142.867) scale(1, 0.861224) translate(-80.5664, -142.867) translate(80.5664, 142.867) scale(0.936735, 1) translate(-80.5664, -142.867) translate(570.57, 142.867) scale(0.940817, 1) translate(-570.57, -142.867) translate(80.5664, 142.867) scale(0.914286, 1) translate(-80.5664, -142.867) translate(80.5664, 142.867) scale(1, 0.820408) translate(-80.5664, -142.867) translate(80.5664, 142.867) scale(1, 0.616327) translate(-80.5664, -142.867) translate(80.5664, 142.867) scale(0.677554, 1) translate(-80.5664, -142.867) translate(80.5664, 142.867) scale(1, 0.967347) translate(-80.5664, -142.867) translate(80.5664, 142.867) scale(0.957143, 1) translate(-80.5664, -142.867)"/>
    <text fill="#eaea07" stroke="#999999" stroke-width="0" x="194.51854" y="99.88531" id="svg_2" font-size="24" font-family="Cursive" text-anchor="middle" xml:space="preserve" transform="matrix(0.830362, 0, 0, 0.932425, -29.8826, -51.3582)" font-style="italic" font-weight="normal">
      Lucho Fuente
    </text>
  </g>
</svg>
